:SAMPLES-PER-SECOND 30
:FULLY-SPECIFIED
:DEGREES
616
root  42.482 39.1709 25.2175 176.33 -5.28217 174.68
RightUpLeg  -3.69539 -17.1946 -7.66958
RightLeg  20.6095 0.987526 0.312632
RightFoot  -10.7341 -0.0678253 -0.968002
RightToes  -1.33073e-015 0 -3.6325e-017
Spine  13.5596 -0.750988 13.4123
Spine1  11.0216 3.12449 -8.61298
HEad  36.3396 -3.91185 158.128
LeftShoulder1  0.226773 2.86395 -29.3041
LeftArm  -5.92258 3.61525 -40.5513
LeftForeArm  44.29 -77.8882 -65.4348
LeftHand  -0.0546853 2.87504 1.87853
RightShoulder  -0.352504 -4.57922 25.6966
RightArm  -10.1492 -15.8842 26.9483
RightForeArm  86.7293 76.4031 121.94
RightHand  -0.229387 4.1234 -3.07147
LeftUpLeg  -11.7651 2.95276 -4.49428
LeftLeg  15.3107 -0.40104 0.136152
LeftFoot  -5.65058 0.247706 -4.46793
LeftToes  -1.93726e-010 2.42366e-011 2.16268e-013
617
root  42.0191 39.2775 25.3188 176.113 -6.42133 174.346
RightUpLeg  -2.70441 -17.1178 -9.08052
RightLeg  19.4733 0.230556 0.253288
RightFoot  -9.91372 -0.0661288 -0.0764196
RightToes  -1.33073e-015 0 -3.6325e-017
Spine  13.2381 -0.796224 13.2374
Spine1  10.875 2.89828 -8.17362
HEad  35.5874 -4.45885 160.173
LeftShoulder1  0.179569 3.00143 -29.6132
LeftArm  -5.35904 3.65411 -40.167
LeftForeArm  42.467 -77.7265 -63.9368
LeftHand  -0.0682317 3.21355 2.81948
RightShoulder  -0.233073 -4.22063 25.0965
RightArm  -10.8237 -16.6239 27.6201
RightForeArm  87.5207 76.3543 122.371
RightHand  -0.21124 4.09202 -2.85673
LeftUpLeg  -11.4336 3.35241 -2.91427
LeftLeg  15.007 -1.83912 -0.289449
LeftFoot  -5.45446 0.302839 -5.25855
LeftToes  -1.93726e-010 2.42366e-011 2.16268e-013
618
root  41.499 39.3805 25.4085 176.25 -7.26982 173.802
RightUpLeg  -2.09463 -16.9838 -10.6629
RightLeg  18.3404 -0.425412 0.239711
RightFoot  -9.06343 -0.0755698 0.713306
RightToes  -1.33073e-015 0 -3.6325e-017
Spine  12.7916 -0.701045 12.9827
Spine1  10.5288 2.91551 -8.22693
HEad  34.5559 -4.30538 161.034
LeftShoulder1  0.17427 3.01523 -29.5434
LeftArm  -5.18896 4.15138 -40.1103
LeftForeArm  43.2824 -77.8171 -64.9215
LeftHand  -0.0667758 3.10141 2.53203
RightShoulder  -0.321322 -4.4885 25.4803
RightArm  -11.2729 -17.3553 27.6833
RightForeArm  91.0865 76.0262 124.807
RightHand  -0.175957 3.8335 -2.47868
LeftUpLeg  -11.1957 3.09245 -1.12293
LeftLeg  14.3626 -1.89049 -0.267257
LeftFoot  -5.45027 0.293651 -5.06492
LeftToes  -1.93726e-010 2.42366e-011 2.16268e-013
619
root  40.9267 39.4184 25.4725 176.46 -7.89345 173.701
RightUpLeg  -1.723 -16.9899 -11.8429
RightLeg  17.5012 -0.659854 0.366011
RightFoot  -8.48061 -0.10379 1.84474
RightToes  -1.33073e-015 0 -3.6325e-017
Spine  11.9495 -0.690143 13.3867
Spine1  10.5536 2.97347 -8.56939
HEad  34.6717 -5.36513 161.88
LeftShoulder1  0.18403 2.98746 -29.5545
LeftArm  -5.59019 4.60507 -40.1322
LeftForeArm  45.5653 -77.9863 -66.3215
LeftHand  -0.0387005 3.16332 1.0945
RightShoulder  -0.41455 -4.76828 25.8548
RightArm  -11.5154 -17.9777 28.0002
RightForeArm  93.4311 75.7462 126.592
RightHand  -0.141651 3.20572 -2.14474
LeftUpLeg  -11.2632 3.76572 1.37974
LeftLeg  14.3528 -2.21169 -0.323494
LeftFoot  -5.48594 0.26374 -4.5585
LeftToes  -1.93726e-010 2.42366e-011 2.16268e-013
620
root  40.3012 39.444 25.5305 176.248 -7.9888 173.714
RightUpLeg  -1.02186 -16.7273 -12.9811
RightLeg  16.6356 -0.630812 0.429569
RightFoot  -7.77386 -0.1379 2.73858
RightToes  -1.33073e-015 0 -3.6325e-017
Spine  11.5682 -0.758335 13.6244
Spine1  10.6515 2.99064 -8.88651
HEad  34.6362 -6.08158 162.16
LeftShoulder1  0.0851632 3.26837 -30.0045
LeftArm  -6.12787 5.06064 -39.7808
LeftForeArm  48.5198 -78.2333 -69.2579
LeftHand  -0.057116 2.22379 1.72354
RightShoulder  -0.386539 -4.68894 25.6345
RightArm  -11.7416 -18.4171 28.8169
RightForeArm  94.5997 75.5912 127.505
RightHand  -0.108982 3.13931 -1.70335
LeftUpLeg  -10.7215 3.52364 4.14124
LeftLeg  14.2642 -1.77006 -0.112748
LeftFoot  -5.3751 0.240189 -4.1032
LeftToes  -1.93726e-010 2.42366e-011 2.16268e-013
621
root  39.6411 39.3971 25.5912 175.948 -7.96389 173.8
RightUpLeg  -0.640269 -16.4925 -14.027
RightLeg  16.4911 -0.459003 0.352267
RightFoot  -7.45255 -0.175894 3.69041
RightToes  -1.33073e-015 0 -3.6325e-017
Spine  11.3553 -0.724852 13.5369
Spine1  10.6147 2.98124 -8.73525
HEad  34.9383 -7.29146 162.781
LeftShoulder1  0.0584597 3.34179 -29.9798
LeftArm  -6.63527 5.41118 -39.7641
LeftForeArm  49.7795 -78.3137 -70.1177
LeftHand  -0.0181883 2.11726 0.301046
RightShoulder  -0.378498 -4.6699 25.4611
RightArm  -11.674 -18.6322 29.4229
RightForeArm  94.2361 75.4974 127.833
RightHand  -0.200971 3.89119 -2.7835
LeftUpLeg  -9.9933 2.88365 6.94889
LeftLeg  13.9735 -2.12575 -0.0875335
LeftFoot  -5.60803 0.243202 -4.06802
LeftToes  -1.93726e-010 2.42366e-011 2.16268e-013
622
root  38.939 39.3148 25.657 175.795 -7.86928 174.018
RightUpLeg  -0.60969 -16.5006 -14.9655
RightLeg  16.6512 0.0735524 0.330447
RightFoot  -7.28335 -0.21961 4.79633
RightToes  -1.33073e-015 0 -3.6325e-017
Spine  10.8737 -0.717338 13.4045
Spine1  10.8162 2.94105 -8.70443
HEad  35.0082 -8.47043 163.88
LeftShoulder1  0.103454 3.21663 -29.8709
LeftArm  -7.03525 5.9525 -39.4835
LeftForeArm  50.7483 -78.41 -72.39
LeftHand  -0.0466027 3.10002 1.52657
RightShoulder  -0.346903 -4.57092 25.4409
RightArm  -12.0487 -18.5231 30.0091
RightForeArm  94.3762 75.3752 128.371
RightHand  -0.235909 3.70228 -3.2711
LeftUpLeg  -9.25895 2.47259 9.6015
LeftLeg  13.2688 -2.89624 0.00293978
LeftFoot  -5.6517 0.210549 -3.56063
LeftToes  -1.93726e-010 2.42366e-011 2.16268e-013
623
root  38.1253 39.1895 25.7269 175.467 -7.4581 174.131
RightUpLeg  -0.754266 -16.0161 -16.0781
RightLeg  17.2575 0.483975 0.127228
RightFoot  -7.142 -0.261835 5.81439
RightToes  -1.33073e-015 0 -3.6325e-017
Spine  10.6244 -0.730955 13.1474
Spine1  11.037 2.84829 -8.57446
HEad  35.1106 -9.47517 163.778
LeftShoulder1  0.105714 3.2128 -30.2078
LeftArm  -7.4238 6.33693 -39.0204
LeftForeArm  53.0886 -78.5471 -74.7575
LeftHand  -0.0520508 2.93925 1.77037
RightShoulder  -0.423075 -4.80883 25.5051
RightArm  -11.8664 -17.8328 30.1915
RightForeArm  95.9591 75.1655 129.52
RightHand  -0.221471 2.98004 -3.29709
LeftUpLeg  -8.14348 2.02805 11.6074
LeftLeg  12.2792 -3.20592 0.553203
LeftFoot  -5.95237 0.202191 -3.53378
LeftToes  -1.93726e-010 2.42366e-011 2.16268e-013
624
root  37.2954 38.9963 25.8131 175.559 -6.68562 174.538
RightUpLeg  -1.83923 -14.7939 -16.6452
RightLeg  18.3774 0.453509 -0.0906123
RightFoot  -7.12312 -0.303731 6.92337
RightToes  -1.33073e-015 0 -3.6325e-017
Spine  10.2113 -0.622384 12.7732
Spine1  11.2772 2.79225 -8.25863
HEad  35.6603 -11.3239 164.757
LeftShoulder1  0.055208 3.35141 -30.1569
LeftArm  -7.91791 6.35976 -38.7869
LeftForeArm  54.38 -78.6163 -76.7731
LeftHand  -0.0611387 2.6529 2.06442
RightShoulder  -0.453512 -4.91504 25.2573
RightArm  -11.7991 -17.0472 30.8275
RightForeArm  97.0863 74.9625 130.511
RightHand  -0.203437 2.66696 -3.14572
LeftUpLeg  -7.47987 3.08028 13.5256
LeftLeg  11.4054 -3.99881 0.999194
LeftFoot  -6.33024 0.181241 -3.2769
LeftToes  -1.93726e-010 2.42366e-011 2.16268e-013
625
root  36.3261 38.7778 25.8802 175.475 -6.61104 174.931
RightUpLeg  -2.12599 -14.7616 -17.9497
RightLeg  19.0431 1.02485 0.14918
RightFoot  -6.96567 -0.352623 7.97106
RightToes  -1.33073e-015 0 -3.6325e-017
Spine  9.7345 -0.729328 12.943
Spine1  11.5846 2.71868 -8.56527
HEad  37.0853 -13.9185 166.117
LeftShoulder1  0.141516 3.11177 -29.9516
LeftArm  -8.17656 6.53472 -38.698
LeftForeArm  57.2295 -78.7307 -79.5969
LeftHand  -0.0773462 3.00519 3.05723
RightShoulder  -0.421714 -4.82002 25.1204
RightArm  -12.3779 -17.0901 31.0432
RightForeArm  97.9108 74.7063 131.609
RightHand  -0.204723 2.89554 -3.09839
LeftUpLeg  -6.84269 4.19635 14.672
LeftLeg  10.6533 -4.63969 1.40916
LeftFoot  -6.71413 0.17762 -3.39811
LeftToes  -1.93726e-010 2.42366e-011 2.16268e-013
626
root  35.2776 38.5547 25.9805 175.39 -6.41009 175.404
RightUpLeg  -2.34859 -14.0339 -19.1351
RightLeg  19.267 1.03992 0.164595
RightFoot  -6.51027 -0.431343 9.15525
RightToes  -1.33073e-015 0 -3.6325e-017
Spine  9.77808 -0.96126 12.4943
Spine1  11.7498 2.33957 -8.23519
HEad  38.0786 -16.081 167.213
LeftShoulder1  0.0609759 3.33364 -29.697
LeftArm  -8.64374 6.64918 -38.9227
LeftForeArm  61.1873 -78.8457 -83.5708
LeftHand  -0.0865934 2.83486 3.30985
RightShoulder  -0.417862 -4.81577 24.928
RightArm  -12.7996 -16.6591 31.5368
RightForeArm  98.4732 74.5394 132.299
RightHand  -0.215816 2.39352 -3.42023
LeftUpLeg  -6.40544 5.15039 15.3903
LeftLeg  10.4871 -3.834 1.71813
LeftFoot  -6.72914 0.179825 -3.46104
LeftToes  -1.93726e-010 2.42366e-011 2.16268e-013
627
root  34.1332 38.2852 26.094 175.669 -6.13209 176.224
RightUpLeg  -2.88045 -13.392 -19.9836
RightLeg  19.1426 1.03598 0.15179
RightFoot  -5.80719 -0.555807 10.6355
RightToes  -1.33073e-015 0 -3.6325e-017
Spine  9.47385 -0.946166 12.2417
Spine1  12.0817 2.12453 -7.57638
HEad  39.5395 -17.9213 167.381
LeftShoulder1  -0.0136585 3.54206 -29.5613
LeftArm  -8.47854 5.9007 -38.9579
LeftForeArm  63.5444 -78.8875 -85.8897
LeftHand  -0.06556 3.12993 2.61765
RightShoulder  -0.434953 -4.87645 24.787
RightArm  -13.4581 -16.6881 31.8154
RightForeArm  99.5529 74.1891 133.672
RightHand  -0.181415 2.60012 -2.8385
LeftUpLeg  -6.75627 6.22069 15.9997
LeftLeg  11.4386 -1.82492 1.48975
LeftFoot  -6.54151 0.182186 -3.50235
LeftToes  -1.93726e-010 2.42366e-011 2.16268e-013
628
root  32.8576 38.0264 26.1936 175.786 -5.82402 176.847
RightUpLeg  -2.67303 -13.0139 -21.3178
RightLeg  17.9268 1.33916 0.144712
RightFoot  -4.62025 -0.763389 12.4046
RightToes  -1.33073e-015 0 -3.6325e-017
Spine  9.74523 -0.998271 12.2469
Spine1  11.8671 2.06924 -7.67682
HEad  40.0989 -19.1974 168.238
LeftShoulder1  -0.0105412 3.53319 -29.4248
LeftArm  -8.25929 5.62108 -39.2992
LeftForeArm  66.2246 -78.8891 -89.1748
LeftHand  -0.085223 3.3279 3.96334
RightShoulder  -0.401175 -4.77946 24.5006
RightArm  -14.4116 -17.6454 31.9847
RightForeArm  101.759 73.698 135.579
RightHand  -0.147372 1.91714 -2.51392
LeftUpLeg  -7.0408 6.94845 15.6922
LeftLeg  12.8704 0.117533 1.26504
LeftFoot  -5.73091 0.298176 -4.9566
LeftToes  -1.93726e-010 2.42366e-011 2.16268e-013
